@startuml

abstract class Account {
	- String id;
	- String email;
	- String userName;
	- AccountType accountType
	- AccountStatus accountStatus
	- LocalDateTime lastAccessed;
	- Contact contact;
}

class Contact {
	- String phone;
	- String email;
	- Address address;
	- PersonalInfo personalInfo;
}

class Address {
	- String addressLine1;
	- String addressLine2;
	- String addressLine3;
	- String street;
	- String city;
	- String state;
	- String country;
	- String pinCode;
}

class PersonalInfo {
	- String firstName;
	- String lastName;
	- String middleName;
	- String initials;
	- String dob;
}

enum AccountType {
	CUSTOMER
	ADMIN
}

enum AccountStatus {
	ACTIVE
	CLOSED
	BLOCKED
	BLACKLISTED
}

class Customer {
	- LicenseInfo licenseInfo;
}

class LicenseInfo {
	- String licenceNumber;
	- LocalDateTime issueDate;
	- LocalDateTime expiryDate;
	- String issuedAtPlace;
	- String issuedInState;
	- String issuedInCountry;
	- LicenseType licenseType;
}

enum LicenseType {
	MCWG
	MC
	LMV
	HMV
	INTERNATIONALMC
	INTERNATIONALMCWG
	INTERNATIONALLMV
	INTERNATIONALHMV
}

Account *-- Contact
Contact *-- Address
Contact *-- PersonalInfo

Admin <|-- Account

Customer <|-- Account
Customer *-- LicenseInfo

@enduml